<svg width="34" height="27" viewBox="0 0 34 27" fill="none" xmlns="http://www.w3.org/2000/svg">
<path d="M20.0401 1.20321L31.5818 12.7434L0.708355 12.7434C0.317156 12.7434 -6.04971e-07 13.0605 -5.87871e-07 13.4517C-5.70771e-07 13.8429 0.317156 14.1601 0.708355 14.1601L31.5818 14.1601L20.0401 25.7002C19.7683 25.9816 19.7762 26.43 20.0575 26.7018C20.3321 26.9669 20.7672 26.9669 21.0417 26.7018L33.7917 13.9518C34.0687 13.6756 34.0692 13.2271 33.7929 12.9501C33.7925 12.9497 33.7921 12.9492 33.7917 12.9488L21.0417 0.198812C20.7603 -0.0729894 20.3119 -0.0651521 20.0401 0.216212C19.7749 0.490735 19.7749 0.925895 20.0401 1.20042L20.0401 1.20321Z" fill="url(#paint0_linear)"/>
<defs>
<linearGradient id="paint0_linear" x1="16.7732" y1="28.0215" x2="11.1995" y2="0.543454" gradientUnits="userSpaceOnUse">
<stop stop-color="#009EE2"/>
<stop offset="1" stop-color="#273992"/>
</linearGradient>
</defs>
</svg>
