<svg width="98" height="98" viewBox="0 0 98 98" fill="none" xmlns="http://www.w3.org/2000/svg">
<circle cx="49" cy="49" r="48.5" stroke="url(#paint0_linear)"/>
<rect x="91" y="32" width="7" height="34" fill="#F4F8FC"/>
<g clip-path="url(#clip0)">
<path d="M52.0401 36.753L63.5818 48.2932L32.7084 48.2932C32.3172 48.2932 32 48.6103 32 49.0015C32 49.3927 32.3172 49.7099 32.7084 49.7099L63.5818 49.7099L52.0401 61.25C51.7683 61.5314 51.7762 61.9798 52.0575 62.2516C52.3321 62.5167 52.7672 62.5167 53.0417 62.2516L65.7917 49.5016C66.0687 49.2254 66.0692 48.7769 65.7929 48.4999C65.7925 48.4995 65.7921 48.499 65.7917 48.4986L53.0417 35.7486C52.7603 35.4768 52.3119 35.4847 52.0401 35.766C51.7749 36.0405 51.7749 36.4757 52.0401 36.7502L52.0401 36.753Z" fill="url(#paint1_linear)"/>
</g>
<defs>
<linearGradient id="paint0_linear" x1="-4.08333" y1="48.3467" x2="93.7111" y2="23.2747" gradientUnits="userSpaceOnUse">
<stop stop-color="#009EE2"/>
<stop offset="1" stop-color="#273992"/>
</linearGradient>
<linearGradient id="paint1_linear" x1="48.7732" y1="63.5713" x2="43.1995" y2="36.0933" gradientUnits="userSpaceOnUse">
<stop stop-color="#009EE2"/>
<stop offset="1" stop-color="#273992"/>
</linearGradient>
<clipPath id="clip0">
<rect width="34" height="34" fill="white" transform="translate(32 66) rotate(-90)"/>
</clipPath>
</defs>
</svg>
