<svg width="17" height="16" viewBox="0 0 17 16" fill="none" xmlns="http://www.w3.org/2000/svg">
<path d="M15.6047 13.9211L2.34649 0.662895C1.98055 0.296952 1.38659 0.297008 1.0207 0.662895C0.654756 1.02884 0.654811 1.6228 1.0207 1.98868L14.2789 15.2469C14.6449 15.6129 15.2388 15.6128 15.6047 15.2469C15.9707 14.881 15.9707 14.2871 15.6047 13.9211Z" fill="#073773"/>
<path d="M1.02027 13.9211L14.2785 0.662895C14.6445 0.296952 15.2384 0.297008 15.6043 0.662895C15.9702 1.02884 15.9702 1.6228 15.6043 1.98868L2.34606 15.2469C1.98012 15.6129 1.38616 15.6128 1.02027 15.2469C0.654275 14.881 0.65433 14.2871 1.02027 13.9211Z" fill="#073773"/>
</svg>
