<svg width="30" height="16" viewBox="0 0 30 16" fill="none" xmlns="http://www.w3.org/2000/svg">
<path d="M0.937476 2.37495H29.0624C29.58 2.37495 29.9999 1.95492 29.9999 1.43748C29.9999 0.919955 29.5799 0.5 29.0624 0.5H0.937476C0.419955 0.5 0 0.920033 0 1.43748C0 1.95492 0.420033 2.37495 0.937476 2.37495Z" fill="#073773"/>
<path d="M29.0624 7.0625H0.937476C0.419955 7.0625 0 7.48253 0 7.99997C0 8.51741 0.420033 8.93744 0.937476 8.93744H29.0624C29.58 8.93744 29.9999 8.51741 29.9999 7.99997C29.9999 7.48253 29.58 7.0625 29.0624 7.0625Z" fill="#073773"/>
<path d="M29.0625 13.6252H10.3125C9.79495 13.6252 9.375 14.0453 9.375 14.5627C9.375 15.0802 9.79503 15.5002 10.3125 15.5002H29.0625C29.58 15.5002 29.9999 15.0802 29.9999 14.5627C30 14.0452 29.58 13.6252 29.0625 13.6252Z" fill="#073773"/>
</svg>
